<svg xmlns="http://www.w3.org/2000/svg" width="36" height="35" fill="transparent" stroke="gray"><g filter="url(#a)"><path d="M16.1 1.81c.6-1.838 3.2-1.838 3.8 0l1.898 5.799A2 2 0 0 0 23.7 8.987h6.11c1.942 0 2.745 2.486 1.171 3.622l-4.92 3.55a2 2 0 0 0-.73 2.243l1.885 5.76c.602 1.84-1.501 3.377-3.072 2.244l-4.973-3.588a2 2 0 0 0-2.34 0l-4.973 3.588c-1.57 1.133-3.674-.403-3.072-2.244l1.885-5.76a2 2 0 0 0-.73-2.244l-4.92-3.55c-1.574-1.135-.77-3.621 1.17-3.621h6.11a2 2 0 0 0 1.902-1.378l1.897-5.8Z"/></g><defs><filter id="a" width="35.627" height="34.362" x=".186" y=".431" color-interpolation-filters="sRGB" filterUnits="userSpaceOnUse"><feFlood flood-opacity="0" result="BackgroundImageFix"/><feColorMatrix in="SourceAlpha" result="hardAlpha" values="0 0 0 0 0 0 0 0 0 0 0 0 0 0 0 0 0 0 127 0"/><feOffset dy="4"/><feGaussianBlur stdDeviation="2"/><feComposite in2="hardAlpha" operator="out"/><feColorMatrix values="0 0 0 0 0 0 0 0 0 0 0 0 0 0 0 0 0 0 0.25 0"/><feBlend in2="BackgroundImageFix" result="effect1_dropShadow_993_142"/><feBlend in="SourceGraphic" in2="effect1_dropShadow_993_142" result="shape"/></filter></defs></svg>